<svg xmlns="http://www.w3.org/2000/svg" viewBox="0 0 960 400" font-family="-apple-system,Segoe UI,Roboto,sans-serif">
<rect width="960" height="400" fill="#0d0d12"/>
<text x="480" y="24" text-anchor="middle" font-size="15" font-weight="600" fill="#ede6ff">Per-turn cost across the session (input + output combined)</text>
<line x1="70" y1="350" x2="940" y2="350" stroke="#2a2635"/><text x="62" y="354" text-anchor="end" font-size="11" fill="#9a94ab">0</text><line x1="70" y1="288.8" x2="940" y2="288.8" stroke="#2a2635"/><text x="62" y="292.8" text-anchor="end" font-size="11" fill="#9a94ab">937</text><line x1="70" y1="227.6" x2="940" y2="227.6" stroke="#2a2635"/><text x="62" y="231.6" text-anchor="end" font-size="11" fill="#9a94ab">1,874</text><line x1="70" y1="166.39999999999998" x2="940" y2="166.39999999999998" stroke="#2a2635"/><text x="62" y="170.39999999999998" text-anchor="end" font-size="11" fill="#9a94ab">2,810</text><line x1="70" y1="105.19999999999999" x2="940" y2="105.19999999999999" stroke="#2a2635"/><text x="62" y="109.19999999999999" text-anchor="end" font-size="11" fill="#9a94ab">3,747</text><line x1="70" y1="44" x2="940" y2="44" stroke="#2a2635"/><text x="62" y="48" text-anchor="end" font-size="11" fill="#9a94ab">4,684</text><rect x="78.15" y="132.38797940204444" width="26.099999999999998" height="217.61202059795556" fill="#f5a623" rx="2"/><rect x="108.25" y="281.27353777572824" width="26.099999999999998" height="68.72646222427176" fill="#863bff" rx="2"/><text x="106.25" y="366" text-anchor="middle" font-size="10" fill="#ede6ff">T1</text><rect x="150.65" y="133.9558834832065" width="26.099999999999998" height="216.0441165167935" fill="#f5a623" rx="2"/><rect x="180.75" y="281.79617246944895" width="26.099999999999998" height="68.20382753055105" fill="#863bff" rx="2"/><text x="178.75" y="366" text-anchor="middle" font-size="10" fill="#ede6ff">T2</text><rect x="223.15" y="128.4028898624241" width="26.099999999999998" height="221.5971101375759" fill="#f5a623" rx="2"/><rect x="253.25" y="280.68557374529246" width="26.099999999999998" height="69.31442625470754" fill="#863bff" rx="2"/><text x="251.25" y="366" text-anchor="middle" font-size="10" fill="#ede6ff">T3</text><rect x="295.65" y="120.82468680347398" width="26.099999999999998" height="229.17531319652602" fill="#f5a623" rx="2"/><rect x="325.75" y="286.3038967027899" width="26.099999999999998" height="63.69610329721007" fill="#863bff" rx="2"/><text x="323.75" y="366" text-anchor="middle" font-size="10" fill="#ede6ff">T4</text><rect x="368.15" y="116.44762124356313" width="26.099999999999998" height="233.55237875643687" fill="#f5a623" rx="2"/><rect x="398.25" y="283.0374298670356" width="26.099999999999998" height="66.9625701329644" fill="#863bff" rx="2"/><text x="396.25" y="366" text-anchor="middle" font-size="10" fill="#ede6ff">T5</text><rect x="440.65" y="111.22127430635615" width="26.099999999999998" height="238.77872569364385" fill="#f5a623" rx="2"/><rect x="470.75" y="286.76120205979555" width="26.099999999999998" height="63.23879794020445" fill="#863bff" rx="2"/><text x="468.75" y="366" text-anchor="middle" font-size="10" fill="#ede6ff">T6</text><rect x="513.15" y="103.64307124740606" width="26.099999999999998" height="246.35692875259394" fill="#f5a623" rx="2"/><rect x="543.25" y="327.13473214971947" width="26.099999999999998" height="22.86526785028053" fill="#863bff" rx="2"/><text x="541.25" y="366" text-anchor="middle" font-size="10" fill="#ede6ff">T7</text><rect x="585.65" y="99.26600568749518" width="26.099999999999998" height="250.73399431250482" fill="#f5a623" rx="2"/><rect x="615.75" y="325.82814541541774" width="26.099999999999998" height="24.171854584582263" fill="#863bff" rx="2"/><text x="613.75" y="366" text-anchor="middle" font-size="10" fill="#ede6ff">T8</text><rect x="658.15" y="93.19037737299209" width="26.099999999999998" height="256.8096226270079" fill="#f5a623" rx="2"/><rect x="688.25" y="325.76281607870266" width="26.099999999999998" height="24.237183921297344" fill="#863bff" rx="2"/><text x="686.25" y="366" text-anchor="middle" font-size="10" fill="#ede6ff">T9</text><rect x="730.65" y="88.48666512950581" width="26.099999999999998" height="261.5133348704942" fill="#f5a623" rx="2"/><rect x="760.75" y="329.81323495503807" width="26.099999999999998" height="20.18676504496193" fill="#863bff" rx="2"/><text x="758.75" y="366" text-anchor="middle" font-size="10" fill="#ede6ff">T10</text><rect x="803.15" y="79.7978633463992" width="26.099999999999998" height="270.2021366536008" fill="#f5a623" rx="2"/><rect x="833.25" y="282.64545384674506" width="26.099999999999998" height="67.35454615325494" fill="#863bff" rx="2"/><text x="831.25" y="366" text-anchor="middle" font-size="10" fill="#ede6ff">T11</text><rect x="875.65" y="66.66666666666669" width="26.099999999999998" height="283.3333333333333" fill="#f5a623" rx="2"/><rect x="905.75" y="283.4294058873261" width="26.099999999999998" height="66.57059411267392" fill="#863bff" rx="2"/><text x="903.75" y="366" text-anchor="middle" font-size="10" fill="#ede6ff">T12</text><rect x="70" y="26" width="12" height="12" fill="#f5a623"/><text x="88" y="36" font-size="12" fill="#ede6ff">Obsidian (baseline)</text><rect x="250" y="26" width="12" height="12" fill="#863bff"/><text x="268" y="36" font-size="12" fill="#ede6ff">Noto (optimized)</text><text x="16" y="197" font-size="12" fill="#9a94ab" transform="rotate(-90 16 197)" text-anchor="middle">tokens / turn (in+out)</text>
</svg>