<svg xmlns="http://www.w3.org/2000/svg" viewBox="0 0 960 440" font-family="-apple-system,Segoe UI,Roboto,sans-serif">
<rect width="960" height="440" fill="#ffffff"/>
<text x="480" y="24" text-anchor="middle" font-size="15" font-weight="600" fill="#2b2b2b">Savings scale with corpus size (combined-scenario mean)</text>
<line x1="70" y1="380" x2="900" y2="380" stroke="#e6e6e6"/><text x="62" y="384" text-anchor="end" font-size="11" fill="#777">0</text><text x="908" y="384" text-anchor="start" font-size="11" fill="#3b6fd4">0%</text><line x1="70" y1="316.8" x2="900" y2="316.8" stroke="#e6e6e6"/><text x="62" y="320.8" text-anchor="end" font-size="11" fill="#777">6,618</text><text x="908" y="320.8" text-anchor="start" font-size="11" fill="#3b6fd4">20%</text><line x1="70" y1="253.60000000000002" x2="900" y2="253.60000000000002" stroke="#e6e6e6"/><text x="62" y="257.6" text-anchor="end" font-size="11" fill="#777">13,236</text><text x="908" y="257.6" text-anchor="start" font-size="11" fill="#3b6fd4">40%</text><line x1="70" y1="190.4" x2="900" y2="190.4" stroke="#e6e6e6"/><text x="62" y="194.4" text-anchor="end" font-size="11" fill="#777">19,854</text><text x="908" y="194.4" text-anchor="start" font-size="11" fill="#3b6fd4">60%</text><line x1="70" y1="127.20000000000002" x2="900" y2="127.20000000000002" stroke="#e6e6e6"/><text x="62" y="131.20000000000002" text-anchor="end" font-size="11" fill="#777">26,472</text><text x="908" y="131.2" text-anchor="start" font-size="11" fill="#3b6fd4">80%</text><line x1="70" y1="64" x2="900" y2="64" stroke="#e6e6e6"/><text x="62" y="68" text-anchor="end" font-size="11" fill="#777">33,090</text><text x="908" y="68" text-anchor="start" font-size="11" fill="#3b6fd4">100%</text><path d="M130.5,347.9 L240.4,310.7 L460.3,235.8 L900.0,87.4" fill="none" stroke="#e0533d" stroke-width="2.5"/><path d="M130.5,372.5 L240.4,372.5 L460.3,372.5 L900.0,372.6" fill="none" stroke="#2f9e6f" stroke-width="2.5"/><path d="M130.5,137.7 L240.4,98.3 L460.3,80.4 L900.0,72.0" fill="none" stroke="#3b6fd4" stroke-width="2" stroke-dasharray="5 4"/><circle cx="130.46357615894038" cy="347.85578293460406" r="3.5" fill="#e0533d"/><circle cx="130.46357615894038" cy="372.5058899756181" r="3.5" fill="#2f9e6f"/><circle cx="130.46357615894038" cy="137.67231134878193" r="3.5" fill="#3b6fd4"/><text x="130.46357615894038" y="129.67231134878193" text-anchor="middle" font-size="11" fill="#3b6fd4">76.7%</text><text x="130.46357615894038" y="398" text-anchor="middle" font-size="11" fill="#2b2b2b">11</text><circle cx="240.39735099337747" cy="310.7457331674832" r="3.5" fill="#e0533d"/><circle cx="240.39735099337747" cy="372.47246610166417" r="3.5" fill="#2f9e6f"/><circle cx="240.39735099337747" cy="98.34735245449531" r="3.5" fill="#3b6fd4"/><text x="240.39735099337747" y="90.34735245449531" text-anchor="middle" font-size="11" fill="#3b6fd4">89.1%</text><text x="240.39735099337747" y="398" text-anchor="middle" font-size="11" fill="#2b2b2b">31</text><circle cx="460.26490066225165" cy="235.83805679761815" r="3.5" fill="#e0533d"/><circle cx="460.26490066225165" cy="372.5130522343225" r="3.5" fill="#2f9e6f"/><circle cx="460.26490066225165" cy="80.41123476417596" r="3.5" fill="#3b6fd4"/><text x="460.26490066225165" y="72.41123476417596" text-anchor="middle" font-size="11" fill="#3b6fd4">94.8%</text><text x="460.26490066225165" y="398" text-anchor="middle" font-size="11" fill="#2b2b2b">71</text><circle cx="900" cy="87.40740740740745" r="3.5" fill="#e0533d"/><circle cx="900" cy="372.56080062568526" r="3.5" fill="#2f9e6f"/><circle cx="900" cy="72.03433532425993" r="3.5" fill="#3b6fd4"/><text x="900" y="64.03433532425993" text-anchor="middle" font-size="11" fill="#3b6fd4">97.5%</text><text x="900" y="398" text-anchor="middle" font-size="11" fill="#2b2b2b">151</text><text x="485" y="426" text-anchor="middle" font-size="12" fill="#777">notes in corpus (11 real + synthetic)</text><rect x="70" y="34" width="12" height="12" fill="#e0533d"/><text x="88" y="44" font-size="12" fill="#2b2b2b">Baseline tokens</text><rect x="220" y="34" width="12" height="12" fill="#2f9e6f"/><text x="238" y="44" font-size="12" fill="#2b2b2b">Optimized tokens</text><line x1="390" y1="40" x2="402" y2="40" stroke="#3b6fd4" stroke-width="2" stroke-dasharray="5 4"/><text x="408" y="44" font-size="12" fill="#2b2b2b">% savings (right axis)</text>
</svg>