<svg xmlns="http://www.w3.org/2000/svg" viewBox="0 0 960 420" font-family="-apple-system,Segoe UI,Roboto,sans-serif">
<rect width="960" height="420" fill="#0d0d12"/>
<text x="480" y="24" text-anchor="middle" font-size="15" font-weight="600" fill="#ede6ff">Output savings climb with note size (fixed edit: rewrite vs delta)</text>
<line x1="70" y1="364" x2="900" y2="364" stroke="#2a2635"/><text x="62" y="368" text-anchor="end" font-size="11" fill="#9a94ab">0</text><text x="908" y="368" text-anchor="start" font-size="11" fill="#47bfff">0%</text><line x1="70" y1="300.8" x2="900" y2="300.8" stroke="#2a2635"/><text x="62" y="304.8" text-anchor="end" font-size="11" fill="#9a94ab">874</text><text x="908" y="304.8" text-anchor="start" font-size="11" fill="#47bfff">20%</text><line x1="70" y1="237.6" x2="900" y2="237.6" stroke="#2a2635"/><text x="62" y="241.6" text-anchor="end" font-size="11" fill="#9a94ab">1,747</text><text x="908" y="241.6" text-anchor="start" font-size="11" fill="#47bfff">40%</text><line x1="70" y1="174.39999999999998" x2="900" y2="174.39999999999998" stroke="#2a2635"/><text x="62" y="178.39999999999998" text-anchor="end" font-size="11" fill="#9a94ab">2,621</text><text x="908" y="178.4" text-anchor="start" font-size="11" fill="#47bfff">60%</text><line x1="70" y1="111.19999999999999" x2="900" y2="111.19999999999999" stroke="#2a2635"/><text x="62" y="115.19999999999999" text-anchor="end" font-size="11" fill="#9a94ab">3,494</text><text x="908" y="115.19999999999999" text-anchor="start" font-size="11" fill="#47bfff">80%</text><line x1="70" y1="48" x2="900" y2="48" stroke="#2a2635"/><text x="62" y="52" text-anchor="end" font-size="11" fill="#9a94ab">4,368</text><text x="908" y="52" text-anchor="start" font-size="11" fill="#47bfff">100%</text><path d="M113.8,345.7 L173.7,324.8 L279.5,287.9 L487.5,215.3 L900.0,71.4" fill="none" stroke="#f5a623" stroke-width="2.5"/><path d="M113.8,359.9 L173.7,360.0 L279.5,359.9 L487.5,359.5 L900.0,359.7" fill="none" stroke="#863bff" stroke-width="2.5"/><path d="M113.8,119.2 L173.7,80.1 L279.5,64.8 L487.5,57.5 L900.0,52.7" fill="none" stroke="#47bfff" stroke-width="2" stroke-dasharray="5 4"/><circle cx="113.76061969015493" cy="345.69487489467707" r="3.5" fill="#f5a623"/><circle cx="113.76061969015493" cy="359.87592043081656" r="3.5" fill="#863bff"/><circle cx="113.76061969015493" cy="119.19367588932806" r="3.5" fill="#47bfff"/><text x="113.76061969015493" y="111.19367588932806" text-anchor="middle" font-size="11" fill="#47bfff">77.5%</text><text x="113.76061969015493" y="382" text-anchor="middle" font-size="11" fill="#ede6ff">211</text><circle cx="173.69815092453774" cy="324.7850679561857" r="3.5" fill="#f5a623"/><circle cx="173.69815092453774" cy="360.0206249771037" r="3.5" fill="#863bff"/><circle cx="173.69815092453774" cy="80.06642066420665" r="3.5" fill="#47bfff"/><text x="173.69815092453774" y="72.06642066420665" text-anchor="middle" font-size="11" fill="#47bfff">89.9%</text><text x="173.69815092453774" y="382" text-anchor="middle" font-size="11" fill="#ede6ff">500</text><circle cx="279.4702648675662" cy="287.88540865296557" r="3.5" fill="#f5a623"/><circle cx="279.4702648675662" cy="359.94827270396013" r="3.5" fill="#863bff"/><circle cx="279.4702648675662" cy="64.82129277566543" r="3.5" fill="#47bfff"/><text x="279.4702648675662" y="56.82129277566543" text-anchor="middle" font-size="11" fill="#47bfff">94.7%</text><text x="279.4702648675662" y="382" text-anchor="middle" font-size="11" fill="#ede6ff">1,010</text><circle cx="487.4887556221889" cy="215.31607868996593" r="3.5" fill="#f5a623"/><circle cx="487.4887556221889" cy="359.51415906509874" r="3.5" fill="#863bff"/><circle cx="487.4887556221889" cy="57.53381995133822" r="3.5" fill="#47bfff"/><text x="487.4887556221889" y="49.53381995133822" text-anchor="middle" font-size="11" fill="#47bfff">97.0%</text><text x="487.4887556221889" y="382" text-anchor="middle" font-size="11" fill="#ede6ff">2,013</text><circle cx="900" cy="71.40740740740745" r="3.5" fill="#f5a623"/><circle cx="900" cy="359.65886361138587" r="3.5" fill="#863bff"/><circle cx="900" cy="52.68842729970328" r="3.5" fill="#47bfff"/><text x="900" y="44.68842729970328" text-anchor="middle" font-size="11" fill="#47bfff">98.5%</text><text x="900" y="382" text-anchor="middle" font-size="11" fill="#ede6ff">4,002</text><text x="485" y="408" text-anchor="middle" font-size="12" fill="#9a94ab">note size (tokens) being edited</text><rect x="70" y="26" width="12" height="12" fill="#f5a623"/><text x="88" y="36" font-size="12" fill="#ede6ff">Obsidian whole-file rewrite</text><rect x="280" y="26" width="12" height="12" fill="#863bff"/><text x="298" y="36" font-size="12" fill="#ede6ff">Noto update_section delta</text><line x1="470" y1="32" x2="482" y2="32" stroke="#47bfff" stroke-width="2" stroke-dasharray="5 4"/><text x="488" y="36" font-size="12" fill="#ede6ff">% output saved (right axis)</text>
</svg>