<svg xmlns="http://www.w3.org/2000/svg" viewBox="0 0 960 400" font-family="-apple-system,Segoe UI,Roboto,sans-serif"><rect width="960" height="400" fill="#fff"/><text x="480" y="26" text-anchor="middle" font-size="15" font-weight="600" fill="#2b2b2b">Output (completion) tokens per query — same question, different context</text><line x1="60" y1="330" x2="940" y2="330" stroke="#e6e6e6"/><text x="52" y="334" text-anchor="end" font-size="11" fill="#777">0</text><line x1="60" y1="272.8" x2="940" y2="272.8" stroke="#e6e6e6"/><text x="52" y="276.8" text-anchor="end" font-size="11" fill="#777">22</text><line x1="60" y1="215.60000000000002" x2="940" y2="215.60000000000002" stroke="#e6e6e6"/><text x="52" y="219.60000000000002" text-anchor="end" font-size="11" fill="#777">45</text><line x1="60" y1="158.4" x2="940" y2="158.4" stroke="#e6e6e6"/><text x="52" y="162.4" text-anchor="end" font-size="11" fill="#777">67</text><line x1="60" y1="101.20000000000002" x2="940" y2="101.20000000000002" stroke="#e6e6e6"/><text x="52" y="105.20000000000002" text-anchor="end" font-size="11" fill="#777">89</text><line x1="60" y1="44" x2="940" y2="44" stroke="#e6e6e6"/><text x="52" y="48" text-anchor="end" font-size="11" fill="#777">112</text><rect x="70.32" y="194.11474675033617" width="31.68" height="135.88525324966383" fill="#e0533d" rx="2"/><rect x="106" y="191.5508740475123" width="31.68" height="138.4491259524877" fill="#2f9e6f" rx="2"/><text x="104" y="348" text-anchor="middle" font-size="11" fill="#2b2b2b">Q1</text><rect x="158.32" y="294.10578216046616" width="31.68" height="35.89421783953384" fill="#e0533d" rx="2"/><rect x="194" y="255.64769161810847" width="31.68" height="74.35230838189153" fill="#2f9e6f" rx="2"/><text x="192" y="348" text-anchor="middle" font-size="11" fill="#2b2b2b">Q2</text><rect x="246.32" y="186.42312864186462" width="31.68" height="143.57687135813538" fill="#e0533d" rx="2"/><rect x="282" y="188.98700134468848" width="31.68" height="141.01299865531152" fill="#2f9e6f" rx="2"/><text x="280" y="348" text-anchor="middle" font-size="11" fill="#2b2b2b">Q3</text><rect x="334.32" y="255.64769161810847" width="31.68" height="74.35230838189153" fill="#e0533d" rx="2"/><rect x="370" y="260.7754370237561" width="31.68" height="69.22456297624387" fill="#2f9e6f" rx="2"/><text x="368" y="348" text-anchor="middle" font-size="11" fill="#2b2b2b">Q4</text><rect x="422.32" y="214.62572837292694" width="31.68" height="115.37427162707306" fill="#e0533d" rx="2"/><rect x="458" y="81.30434782608697" width="31.68" height="248.69565217391303" fill="#2f9e6f" rx="2"/><text x="456" y="348" text-anchor="middle" font-size="11" fill="#2b2b2b">Q5</text><rect x="510.32000000000005" y="283.8502913491708" width="31.68" height="46.14970865082921" fill="#e0533d" rx="2"/><rect x="546" y="283.8502913491708" width="31.68" height="46.14970865082921" fill="#2f9e6f" rx="2"/><text x="544" y="348" text-anchor="middle" font-size="11" fill="#2b2b2b">Q6</text><rect x="598.32" y="253.0838189152846" width="31.68" height="76.91618108471539" fill="#e0533d" rx="2"/><rect x="634" y="178.7315105333931" width="31.68" height="151.2684894666069" fill="#2f9e6f" rx="2"/><text x="632" y="348" text-anchor="middle" font-size="11" fill="#2b2b2b">Q7</text><rect x="686.32" y="268.4670551322277" width="31.68" height="61.5329448677723" fill="#e0533d" rx="2"/><rect x="722" y="273.59480053787536" width="31.68" height="56.40519946212464" fill="#2f9e6f" rx="2"/><text x="720" y="348" text-anchor="middle" font-size="11" fill="#2b2b2b">Q8</text><rect x="774.32" y="155.65665620797847" width="31.68" height="174.34334379202153" fill="#e0533d" rx="2"/><rect x="810" y="214.62572837292694" width="31.68" height="115.37427162707306" fill="#2f9e6f" rx="2"/><text x="808" y="348" text-anchor="middle" font-size="11" fill="#2b2b2b">Q9</text><rect x="862.32" y="235.13670999551772" width="31.68" height="94.86329000448228" fill="#e0533d" rx="2"/><rect x="898" y="235.13670999551772" width="31.68" height="94.86329000448228" fill="#2f9e6f" rx="2"/><text x="896" y="348" text-anchor="middle" font-size="11" fill="#2b2b2b">Q10</text><rect x="60" y="374" width="12" height="12" fill="#e0533d"/><text x="78" y="384" font-size="12" fill="#2b2b2b">Baseline (full-dump) output</text><rect x="290" y="374" width="12" height="12" fill="#2f9e6f"/><text x="308" y="384" font-size="12" fill="#2b2b2b">Optimized (retrieval) output</text><text x="16" y="187" font-size="12" fill="#777" transform="rotate(-90 16 187)" text-anchor="middle">output tokens</text></svg>