<svg xmlns="http://www.w3.org/2000/svg" viewBox="0 0 960 440" font-family="-apple-system,Segoe UI,Roboto,sans-serif">
<rect width="960" height="440" fill="#0d0d12"/>
<text x="480" y="24" text-anchor="middle" font-size="15" font-weight="600" fill="#ede6ff">Agentic-coding session — Noto vs Obsidian</text>
<line x1="40" y1="384" x2="450" y2="384" stroke="#6a6480"/><rect x="109.69999999999999" y="106.03389830508473" width="106.60000000000001" height="277.96610169491527" fill="#f5a623" rx="2"/><text x="163" y="98.03389830508473" text-anchor="middle" font-size="12" fill="#ede6ff">43,190</text><text x="163" y="402" text-anchor="middle" font-size="11" fill="#9a94ab">Obsidian</text><rect x="273.7" y="329.19839416688575" width="106.60000000000001" height="54.80160583311425" fill="#863bff" rx="2"/><text x="327" y="321.19839416688575" text-anchor="middle" font-size="12" fill="#ede6ff">8,515</text><text x="327" y="402" text-anchor="middle" font-size="11" fill="#9a94ab">Noto</text><text x="245" y="40" text-anchor="middle" font-size="12" fill="#ede6ff">INPUT — context re-fed per turn</text><text x="245" y="424" text-anchor="middle" font-size="14" font-weight="700" fill="#863bff">−80% tokens</text><line x1="520" y1="384" x2="930" y2="384" stroke="#6a6480"/><rect x="589.7" y="106.03389830508473" width="106.60000000000001" height="277.96610169491527" fill="#f5a623" rx="2"/><text x="643" y="98.03389830508473" text-anchor="middle" font-size="12" fill="#ede6ff">1,594</text><text x="643" y="402" text-anchor="middle" font-size="11" fill="#9a94ab">Obsidian</text><rect x="753.7" y="199.15428620037002" width="106.60000000000001" height="184.84571379962998" fill="#863bff" rx="2"/><text x="807" y="191.15428620037002" text-anchor="middle" font-size="12" fill="#ede6ff">1,060</text><text x="807" y="402" text-anchor="middle" font-size="11" fill="#9a94ab">Noto</text><text x="725" y="40" text-anchor="middle" font-size="12" fill="#ede6ff">OUTPUT — tokens emitted per edit</text><text x="725" y="424" text-anchor="middle" font-size="14" font-weight="700" fill="#863bff">−34% tokens</text><line x1="480" y1="48" x2="480" y2="392" stroke="#2a2635"/><text x="480" y="432" text-anchor="middle" font-size="11" fill="#9a94ab">Combined session: 44,784 → 9,575 tokens (−79%). Panels use independent scales.</text>
</svg>