<svg xmlns="http://www.w3.org/2000/svg" viewBox="0 0 960 380" font-family="-apple-system,Segoe UI,Roboto,sans-serif">
<rect width="960" height="380" fill="#ffffff"/>
<text x="480" y="24" text-anchor="middle" font-size="15" font-weight="600" fill="#2b2b2b">Token reduction per query (%)</text>
<line x1="50" y1="310" x2="940" y2="310" stroke="#e6e6e6"/><text x="42" y="314" text-anchor="end" font-size="11" fill="#777">0%</text><line x1="50" y1="256" x2="940" y2="256" stroke="#e6e6e6"/><text x="42" y="260" text-anchor="end" font-size="11" fill="#777">20%</text><line x1="50" y1="202" x2="940" y2="202" stroke="#e6e6e6"/><text x="42" y="206" text-anchor="end" font-size="11" fill="#777">40%</text><line x1="50" y1="148" x2="940" y2="148" stroke="#e6e6e6"/><text x="42" y="152" text-anchor="end" font-size="11" fill="#777">60%</text><line x1="50" y1="94" x2="940" y2="94" stroke="#e6e6e6"/><text x="42" y="98" text-anchor="end" font-size="11" fill="#777">80%</text><line x1="50" y1="40" x2="940" y2="40" stroke="#e6e6e6"/><text x="42" y="44" text-anchor="end" font-size="11" fill="#777">100%</text><rect x="70.025" y="123.3108108108108" width="48.95" height="186.6891891891892" fill="#2f9e6f" rx="2"/><text x="94.5" y="117.3108108108108" text-anchor="middle" font-size="11" fill="#2b2b2b">69%</text><text x="94.5" y="328" text-anchor="middle" font-size="11" fill="#2b2b2b">Q1</text><rect x="159.025" y="169.49941792782306" width="48.95" height="140.50058207217694" fill="#2f9e6f" rx="2"/><text x="183.5" y="163.49941792782306" text-anchor="middle" font-size="11" fill="#2b2b2b">52%</text><text x="183.5" y="328" text-anchor="middle" font-size="11" fill="#2b2b2b">Q2</text><rect x="248.025" y="125.13513513513513" width="48.95" height="184.86486486486487" fill="#2f9e6f" rx="2"/><text x="272.5" y="119.13513513513513" text-anchor="middle" font-size="11" fill="#2b2b2b">68%</text><text x="272.5" y="328" text-anchor="middle" font-size="11" fill="#2b2b2b">Q3</text><rect x="337.025" y="64.8311990686845" width="48.95" height="245.1688009313155" fill="#2f9e6f" rx="2"/><text x="361.5" y="58.8311990686845" text-anchor="middle" font-size="11" fill="#2b2b2b">91%</text><text x="361.5" y="328" text-anchor="middle" font-size="11" fill="#2b2b2b">Q4</text><rect x="426.025" y="102.66785237883502" width="48.95" height="207.33214762116498" fill="#2f9e6f" rx="2"/><text x="450.5" y="96.66785237883502" text-anchor="middle" font-size="11" fill="#2b2b2b">77%</text><text x="450.5" y="328" text-anchor="middle" font-size="11" fill="#2b2b2b">Q5</text><rect x="515.025" y="101.46731880835927" width="48.95" height="208.53268119164073" fill="#2f9e6f" rx="2"/><text x="539.5" y="95.46731880835927" text-anchor="middle" font-size="11" fill="#2b2b2b">77%</text><text x="539.5" y="328" text-anchor="middle" font-size="11" fill="#2b2b2b">Q6</text><rect x="604.025" y="63.888242142025604" width="48.95" height="246.1117578579744" fill="#2f9e6f" rx="2"/><text x="628.5" y="57.888242142025604" text-anchor="middle" font-size="11" fill="#2b2b2b">91%</text><text x="628.5" y="328" text-anchor="middle" font-size="11" fill="#2b2b2b">Q7</text><rect x="693.025" y="122.26833976833976" width="48.95" height="187.73166023166024" fill="#2f9e6f" rx="2"/><text x="717.5" y="116.26833976833976" text-anchor="middle" font-size="11" fill="#2b2b2b">70%</text><text x="717.5" y="328" text-anchor="middle" font-size="11" fill="#2b2b2b">Q8</text><rect x="782.025" y="62.84749034749035" width="48.95" height="247.15250965250965" fill="#2f9e6f" rx="2"/><text x="806.5" y="56.84749034749035" text-anchor="middle" font-size="11" fill="#2b2b2b">92%</text><text x="806.5" y="328" text-anchor="middle" font-size="11" fill="#2b2b2b">Q9</text><rect x="871.025" y="102.78790573588262" width="48.95" height="207.21209426411738" fill="#2f9e6f" rx="2"/><text x="895.5" y="96.78790573588262" text-anchor="middle" font-size="11" fill="#2b2b2b">77%</text><text x="895.5" y="328" text-anchor="middle" font-size="11" fill="#2b2b2b">Q10</text>
</svg>