<svg xmlns="http://www.w3.org/2000/svg" viewBox="0 0 960 440" font-family="-apple-system,Segoe UI,Roboto,sans-serif">
<rect width="960" height="440" fill="#0d0d12"/>
<text x="480" y="24" text-anchor="middle" font-size="15" font-weight="600" fill="#ede6ff">Savings scale with corpus size (combined-scenario mean)</text>
<line x1="70" y1="380" x2="900" y2="380" stroke="#2a2635"/><text x="62" y="384" text-anchor="end" font-size="11" fill="#9a94ab">0</text><text x="908" y="384" text-anchor="start" font-size="11" fill="#47bfff">0%</text><line x1="70" y1="316.8" x2="900" y2="316.8" stroke="#2a2635"/><text x="62" y="320.8" text-anchor="end" font-size="11" fill="#9a94ab">6,636</text><text x="908" y="320.8" text-anchor="start" font-size="11" fill="#47bfff">20%</text><line x1="70" y1="253.60000000000002" x2="900" y2="253.60000000000002" stroke="#2a2635"/><text x="62" y="257.6" text-anchor="end" font-size="11" fill="#9a94ab">13,272</text><text x="908" y="257.6" text-anchor="start" font-size="11" fill="#47bfff">40%</text><line x1="70" y1="190.4" x2="900" y2="190.4" stroke="#2a2635"/><text x="62" y="194.4" text-anchor="end" font-size="11" fill="#9a94ab">19,909</text><text x="908" y="194.4" text-anchor="start" font-size="11" fill="#47bfff">60%</text><line x1="70" y1="127.20000000000002" x2="900" y2="127.20000000000002" stroke="#2a2635"/><text x="62" y="131.20000000000002" text-anchor="end" font-size="11" fill="#9a94ab">26,545</text><text x="908" y="131.2" text-anchor="start" font-size="11" fill="#47bfff">80%</text><line x1="70" y1="64" x2="900" y2="64" stroke="#2a2635"/><text x="62" y="68" text-anchor="end" font-size="11" fill="#9a94ab">33,181</text><text x="908" y="68" text-anchor="start" font-size="11" fill="#47bfff">100%</text><path d="M130.5,347.9 L240.4,310.8 L460.3,236.3 L900.0,87.4" fill="none" stroke="#f5a623" stroke-width="2.5"/><path d="M130.5,372.5 L240.4,372.5 L460.3,372.2 L900.0,372.0" fill="none" stroke="#863bff" stroke-width="2.5"/><path d="M130.5,137.5 L240.4,98.5 L460.3,81.1 L900.0,72.6" fill="none" stroke="#47bfff" stroke-width="2" stroke-dasharray="5 4"/><circle cx="130.46357615894038" cy="347.8579565797611" r="3.5" fill="#f5a623"/><circle cx="130.46357615894038" cy="372.52876057387334" r="3.5" fill="#863bff"/><circle cx="130.46357615894038" cy="137.4524444444445" r="3.5" fill="#47bfff"/><text x="130.46357615894038" y="129.4524444444445" text-anchor="middle" font-size="11" fill="#47bfff">76.8%</text><text x="130.46357615894038" y="398" text-anchor="middle" font-size="11" fill="#ede6ff">11</text><circle cx="240.39735099337747" cy="310.8112754228043" r="3.5" fill="#f5a623"/><circle cx="240.39735099337747" cy="372.4501911344017" r="3.5" fill="#863bff"/><circle cx="240.39735099337747" cy="98.48162422573984" r="3.5" fill="#47bfff"/><text x="240.39735099337747" y="90.48162422573984" text-anchor="middle" font-size="11" fill="#47bfff">89.1%</text><text x="240.39735099337747" y="398" text-anchor="middle" font-size="11" fill="#ede6ff">31</text><circle cx="460.26490066225165" cy="236.31792323521648" r="3.5" fill="#f5a623"/><circle cx="460.26490066225165" cy="372.2287681686178" r="3.5" fill="#863bff"/><circle cx="460.26490066225165" cy="81.09127063034401" r="3.5" fill="#47bfff"/><text x="460.26490066225165" y="73.09127063034401" text-anchor="middle" font-size="11" fill="#47bfff">94.6%</text><text x="460.26490066225165" y="398" text-anchor="middle" font-size="11" fill="#ede6ff">71</text><circle cx="900" cy="87.40740740740745" r="3.5" fill="#f5a623"/><circle cx="900" cy="372.0382968002016" r="3.5" fill="#863bff"/><circle cx="900" cy="72.59863945578229" r="3.5" fill="#47bfff"/><text x="900" y="64.59863945578229" text-anchor="middle" font-size="11" fill="#47bfff">97.3%</text><text x="900" y="398" text-anchor="middle" font-size="11" fill="#ede6ff">151</text><text x="485" y="426" text-anchor="middle" font-size="12" fill="#9a94ab">notes in corpus (11 real + synthetic)</text><rect x="70" y="34" width="12" height="12" fill="#f5a623"/><text x="88" y="44" font-size="12" fill="#ede6ff">Baseline tokens</text><rect x="220" y="34" width="12" height="12" fill="#863bff"/><text x="238" y="44" font-size="12" fill="#ede6ff">Optimized tokens</text><line x1="390" y1="40" x2="402" y2="40" stroke="#47bfff" stroke-width="2" stroke-dasharray="5 4"/><text x="408" y="44" font-size="12" fill="#ede6ff">% savings (right axis)</text>
</svg>