<svg xmlns="http://www.w3.org/2000/svg" viewBox="0 0 960 380" font-family="-apple-system,Segoe UI,Roboto,sans-serif">
<rect width="960" height="380" fill="#ffffff"/>
<text x="480" y="24" text-anchor="middle" font-size="15" font-weight="600" fill="#2b2b2b">Token reduction per query (%)</text>
<line x1="50" y1="310" x2="940" y2="310" stroke="#e6e6e6"/><text x="42" y="314" text-anchor="end" font-size="11" fill="#777">0%</text><line x1="50" y1="256" x2="940" y2="256" stroke="#e6e6e6"/><text x="42" y="260" text-anchor="end" font-size="11" fill="#777">20%</text><line x1="50" y1="202" x2="940" y2="202" stroke="#e6e6e6"/><text x="42" y="206" text-anchor="end" font-size="11" fill="#777">40%</text><line x1="50" y1="148" x2="940" y2="148" stroke="#e6e6e6"/><text x="42" y="152" text-anchor="end" font-size="11" fill="#777">60%</text><line x1="50" y1="94" x2="940" y2="94" stroke="#e6e6e6"/><text x="42" y="98" text-anchor="end" font-size="11" fill="#777">80%</text><line x1="50" y1="40" x2="940" y2="40" stroke="#e6e6e6"/><text x="42" y="44" text-anchor="end" font-size="11" fill="#777">100%</text><rect x="70.025" y="123.3913043478261" width="48.95" height="186.6086956521739" fill="#2f9e6f" rx="2"/><text x="94.5" y="117.3913043478261" text-anchor="middle" font-size="11" fill="#2b2b2b">69%</text><text x="94.5" y="328" text-anchor="middle" font-size="11" fill="#2b2b2b">Q1</text><rect x="159.025" y="173.58556461001163" width="48.95" height="136.41443538998837" fill="#2f9e6f" rx="2"/><text x="183.5" y="167.58556461001163" text-anchor="middle" font-size="11" fill="#2b2b2b">51%</text><text x="183.5" y="328" text-anchor="middle" font-size="11" fill="#2b2b2b">Q2</text><rect x="248.025" y="125.65217391304347" width="48.95" height="184.34782608695653" fill="#2f9e6f" rx="2"/><text x="272.5" y="119.65217391304347" text-anchor="middle" font-size="11" fill="#2b2b2b">68%</text><text x="272.5" y="328" text-anchor="middle" font-size="11" fill="#2b2b2b">Q3</text><rect x="337.025" y="63.888242142025604" width="48.95" height="246.1117578579744" fill="#2f9e6f" rx="2"/><text x="361.5" y="57.888242142025604" text-anchor="middle" font-size="11" fill="#2b2b2b">91%</text><text x="361.5" y="328" text-anchor="middle" font-size="11" fill="#2b2b2b">Q4</text><rect x="426.025" y="102.39091718610862" width="48.95" height="207.60908281389138" fill="#2f9e6f" rx="2"/><text x="450.5" y="96.39091718610862" text-anchor="middle" font-size="11" fill="#2b2b2b">77%</text><text x="450.5" y="328" text-anchor="middle" font-size="11" fill="#2b2b2b">Q5</text><rect x="515.025" y="101.42920747996439" width="48.95" height="208.5707925200356" fill="#2f9e6f" rx="2"/><text x="539.5" y="95.42920747996439" text-anchor="middle" font-size="11" fill="#2b2b2b">77%</text><text x="539.5" y="328" text-anchor="middle" font-size="11" fill="#2b2b2b">Q6</text><rect x="604.025" y="62.630966239813716" width="48.95" height="247.36903376018628" fill="#2f9e6f" rx="2"/><text x="628.5" y="56.630966239813716" text-anchor="middle" font-size="11" fill="#2b2b2b">92%</text><text x="628.5" y="328" text-anchor="middle" font-size="11" fill="#2b2b2b">Q7</text><rect x="693.025" y="123.13043478260869" width="48.95" height="186.8695652173913" fill="#2f9e6f" rx="2"/><text x="717.5" y="117.13043478260869" text-anchor="middle" font-size="11" fill="#2b2b2b">69%</text><text x="717.5" y="328" text-anchor="middle" font-size="11" fill="#2b2b2b">Q8</text><rect x="782.025" y="62.69565217391303" width="48.95" height="247.30434782608697" fill="#2f9e6f" rx="2"/><text x="806.5" y="56.69565217391303" text-anchor="middle" font-size="11" fill="#2b2b2b">92%</text><text x="806.5" y="328" text-anchor="middle" font-size="11" fill="#2b2b2b">Q9</text><rect x="871.025" y="102.51113089937667" width="48.95" height="207.48886910062333" fill="#2f9e6f" rx="2"/><text x="895.5" y="96.51113089937667" text-anchor="middle" font-size="11" fill="#2b2b2b">77%</text><text x="895.5" y="328" text-anchor="middle" font-size="11" fill="#2b2b2b">Q10</text>
</svg>