<svg xmlns="http://www.w3.org/2000/svg" viewBox="0 0 960 420" font-family="-apple-system,Segoe UI,Roboto,sans-serif">
<rect width="960" height="420" fill="#ffffff"/>
<text x="480" y="24" text-anchor="middle" font-size="15" font-weight="600" fill="#2b2b2b">Output savings climb with note size (fixed edit: rewrite vs delta)</text>
<line x1="70" y1="364" x2="900" y2="364" stroke="#e6e6e6"/><text x="62" y="368" text-anchor="end" font-size="11" fill="#777">0</text><text x="908" y="368" text-anchor="start" font-size="11" fill="#3b6fd4">0%</text><line x1="70" y1="300.8" x2="900" y2="300.8" stroke="#e6e6e6"/><text x="62" y="304.8" text-anchor="end" font-size="11" fill="#777">874</text><text x="908" y="304.8" text-anchor="start" font-size="11" fill="#3b6fd4">20%</text><line x1="70" y1="237.6" x2="900" y2="237.6" stroke="#e6e6e6"/><text x="62" y="241.6" text-anchor="end" font-size="11" fill="#777">1,747</text><text x="908" y="241.6" text-anchor="start" font-size="11" fill="#3b6fd4">40%</text><line x1="70" y1="174.39999999999998" x2="900" y2="174.39999999999998" stroke="#e6e6e6"/><text x="62" y="178.39999999999998" text-anchor="end" font-size="11" fill="#777">2,621</text><text x="908" y="178.4" text-anchor="start" font-size="11" fill="#3b6fd4">60%</text><line x1="70" y1="111.19999999999999" x2="900" y2="111.19999999999999" stroke="#e6e6e6"/><text x="62" y="115.19999999999999" text-anchor="end" font-size="11" fill="#777">3,494</text><text x="908" y="115.19999999999999" text-anchor="start" font-size="11" fill="#3b6fd4">80%</text><line x1="70" y1="48" x2="900" y2="48" stroke="#e6e6e6"/><text x="62" y="52" text-anchor="end" font-size="11" fill="#777">4,368</text><text x="908" y="52" text-anchor="start" font-size="11" fill="#3b6fd4">100%</text><path d="M113.8,345.7 L173.7,324.8 L279.5,287.9 L487.5,215.3 L900.0,71.4" fill="none" stroke="#e0533d" stroke-width="2.5"/><path d="M113.8,359.9 L173.7,359.7 L279.5,359.7 L487.5,359.9 L900.0,359.6" fill="none" stroke="#2f9e6f" stroke-width="2.5"/><path d="M113.8,119.2 L173.7,83.0 L279.5,66.0 L487.5,56.6 L900.0,52.8" fill="none" stroke="#3b6fd4" stroke-width="2" stroke-dasharray="5 4"/><circle cx="113.76061969015493" cy="345.69487489467707" r="3.5" fill="#e0533d"/><circle cx="113.76061969015493" cy="359.87592043081656" r="3.5" fill="#2f9e6f"/><circle cx="113.76061969015493" cy="119.19367588932806" r="3.5" fill="#3b6fd4"/><text x="113.76061969015493" y="111.19367588932806" text-anchor="middle" font-size="11" fill="#3b6fd4">77.5%</text><text x="113.76061969015493" y="382" text-anchor="middle" font-size="11" fill="#2b2b2b">211</text><circle cx="173.69815092453774" cy="324.7850679561857" r="3.5" fill="#e0533d"/><circle cx="173.69815092453774" cy="359.65886361138587" r="3.5" fill="#2f9e6f"/><circle cx="173.69815092453774" cy="82.98154981549817" r="3.5" fill="#3b6fd4"/><text x="173.69815092453774" y="74.98154981549817" text-anchor="middle" font-size="11" fill="#3b6fd4">88.9%</text><text x="173.69815092453774" y="382" text-anchor="middle" font-size="11" fill="#2b2b2b">500</text><circle cx="279.4702648675662" cy="287.88540865296557" r="3.5" fill="#e0533d"/><circle cx="279.4702648675662" cy="359.65886361138587" r="3.5" fill="#2f9e6f"/><circle cx="279.4702648675662" cy="66.02281368821292" r="3.5" fill="#3b6fd4"/><text x="279.4702648675662" y="58.02281368821292" text-anchor="middle" font-size="11" fill="#3b6fd4">94.3%</text><text x="279.4702648675662" y="382" text-anchor="middle" font-size="11" fill="#2b2b2b">1,010</text><circle cx="487.4887556221889" cy="215.31607868996593" r="3.5" fill="#e0533d"/><circle cx="487.4887556221889" cy="359.94827270396013" r="3.5" fill="#2f9e6f"/><circle cx="487.4887556221889" cy="56.611192214111895" r="3.5" fill="#3b6fd4"/><text x="487.4887556221889" y="48.611192214111895" text-anchor="middle" font-size="11" fill="#3b6fd4">97.3%</text><text x="487.4887556221889" y="382" text-anchor="middle" font-size="11" fill="#2b2b2b">2,013</text><circle cx="900" cy="71.40740740740745" r="3.5" fill="#e0533d"/><circle cx="900" cy="359.5865113382423" r="3.5" fill="#2f9e6f"/><circle cx="900" cy="52.766567754698315" r="3.5" fill="#3b6fd4"/><text x="900" y="44.766567754698315" text-anchor="middle" font-size="11" fill="#3b6fd4">98.5%</text><text x="900" y="382" text-anchor="middle" font-size="11" fill="#2b2b2b">4,002</text><text x="485" y="408" text-anchor="middle" font-size="12" fill="#777">note size (tokens) being edited</text><rect x="70" y="26" width="12" height="12" fill="#e0533d"/><text x="88" y="36" font-size="12" fill="#2b2b2b">Obsidian whole-file rewrite</text><rect x="280" y="26" width="12" height="12" fill="#2f9e6f"/><text x="298" y="36" font-size="12" fill="#2b2b2b">Noto update_section delta</text><line x1="470" y1="32" x2="482" y2="32" stroke="#3b6fd4" stroke-width="2" stroke-dasharray="5 4"/><text x="488" y="36" font-size="12" fill="#2b2b2b">% output saved (right axis)</text>
</svg>