<svg xmlns="http://www.w3.org/2000/svg" viewBox="0 0 960 440" font-family="-apple-system,Segoe UI,Roboto,sans-serif">
<rect width="960" height="440" fill="#ffffff"/>
<text x="480" y="24" text-anchor="middle" font-size="15" font-weight="600" fill="#2b2b2b">Input tokens per query — baseline vs optimized</text>
<line x1="70" y1="370" x2="940" y2="370" stroke="#e6e6e6"/><text x="62" y="374" text-anchor="end" font-size="11" fill="#777">0</text><line x1="70" y1="304" x2="940" y2="304" stroke="#e6e6e6"/><text x="62" y="308" text-anchor="end" font-size="11" fill="#777">671</text><line x1="70" y1="238" x2="940" y2="238" stroke="#e6e6e6"/><text x="62" y="242" text-anchor="end" font-size="11" fill="#777">1,343</text><line x1="70" y1="171.99999999999997" x2="940" y2="171.99999999999997" stroke="#e6e6e6"/><text x="62" y="175.99999999999997" text-anchor="end" font-size="11" fill="#777">2,014</text><line x1="70" y1="106" x2="940" y2="106" stroke="#e6e6e6"/><text x="62" y="110" text-anchor="end" font-size="11" fill="#777">2,685</text><line x1="70" y1="40" x2="940" y2="40" stroke="#e6e6e6"/><text x="62" y="44" text-anchor="end" font-size="11" fill="#777">3,357</text><rect x="80.18" y="64.44444444444446" width="31.32" height="305.55555555555554" fill="#e0533d" rx="2"/><rect x="115.5" y="275.7182182182182" width="31.32" height="94.28178178178177" fill="#2f9e6f" rx="2"/><text x="113.5" y="388" text-anchor="middle" font-size="11" fill="#2b2b2b">Q1</text><rect x="167.18" y="285.54947804947807" width="31.32" height="84.45052195052193" fill="#e0533d" rx="2"/><rect x="202.5" y="329.4952094952095" width="31.32" height="40.50479050479049" fill="#2f9e6f" rx="2"/><text x="200.5" y="388" text-anchor="middle" font-size="11" fill="#2b2b2b">Q2</text><rect x="254.18" y="64.44444444444446" width="31.32" height="305.55555555555554" fill="#e0533d" rx="2"/><rect x="289.5" y="273.6536536536537" width="31.32" height="96.34634634634631" fill="#2f9e6f" rx="2"/><text x="287.5" y="388" text-anchor="middle" font-size="11" fill="#2b2b2b">Q3</text><rect x="341.18" y="285.54947804947807" width="31.32" height="84.45052195052193" fill="#e0533d" rx="2"/><rect x="376.5" y="362.23330473330475" width="31.32" height="7.766695266695251" fill="#2f9e6f" rx="2"/><text x="374.5" y="388" text-anchor="middle" font-size="11" fill="#2b2b2b">Q4</text><rect x="428.18" y="148.89496639496642" width="31.32" height="221.10503360503358" fill="#e0533d" rx="2"/><rect x="463.5" y="318.68082368082366" width="31.32" height="51.319176319176336" fill="#2f9e6f" rx="2"/><text x="461.5" y="388" text-anchor="middle" font-size="11" fill="#2b2b2b">Q5</text><rect x="515.18" y="148.89496639496642" width="31.32" height="221.10503360503358" fill="#e0533d" rx="2"/><rect x="550.5" y="319.66394966394967" width="31.32" height="50.336050336050334" fill="#2f9e6f" rx="2"/><text x="548.5" y="388" text-anchor="middle" font-size="11" fill="#2b2b2b">Q6</text><rect x="602.18" y="285.54947804947807" width="31.32" height="84.45052195052193" fill="#e0533d" rx="2"/><rect x="637.5" y="362.5282425282425" width="31.32" height="7.471757471757485" fill="#2f9e6f" rx="2"/><text x="635.5" y="388" text-anchor="middle" font-size="11" fill="#2b2b2b">Q7</text><rect x="689.18" y="64.44444444444446" width="31.32" height="305.55555555555554" fill="#e0533d" rx="2"/><rect x="724.5" y="276.8979693979694" width="31.32" height="93.1020306020306" fill="#2f9e6f" rx="2"/><text x="722.5" y="388" text-anchor="middle" font-size="11" fill="#2b2b2b">Q8</text><rect x="776.18" y="64.44444444444446" width="31.32" height="305.55555555555554" fill="#e0533d" rx="2"/><rect x="811.5" y="344.14378664378665" width="31.32" height="25.856213356213345" fill="#2f9e6f" rx="2"/><text x="809.5" y="388" text-anchor="middle" font-size="11" fill="#2b2b2b">Q9</text><rect x="863.18" y="148.89496639496642" width="31.32" height="221.10503360503358" fill="#e0533d" rx="2"/><rect x="898.5" y="318.5825110825111" width="31.32" height="51.417488917488924" fill="#2f9e6f" rx="2"/><text x="896.5" y="388" text-anchor="middle" font-size="11" fill="#2b2b2b">Q10</text><rect x="70" y="414" width="12" height="12" fill="#e0533d"/><text x="88" y="424" font-size="12" fill="#2b2b2b">Baseline (dump all)</text><rect x="240" y="414" width="12" height="12" fill="#2f9e6f"/><text x="258" y="424" font-size="12" fill="#2b2b2b">Optimized (top-K retrieval)</text><text x="16" y="205" font-size="12" fill="#777" transform="rotate(-90 16 205)" text-anchor="middle">input tokens</text>
</svg>