<svg xmlns="http://www.w3.org/2000/svg" viewBox="0 0 960 380" font-family="-apple-system,Segoe UI,Roboto,sans-serif">
<rect width="960" height="380" fill="#ffffff"/>
<text x="480" y="24" text-anchor="middle" font-size="15" font-weight="600" fill="#2b2b2b">Token reduction per query (%)</text>
<line x1="50" y1="310" x2="940" y2="310" stroke="#e6e6e6"/><text x="42" y="314" text-anchor="end" font-size="11" fill="#777">0%</text><line x1="50" y1="256" x2="940" y2="256" stroke="#e6e6e6"/><text x="42" y="260" text-anchor="end" font-size="11" fill="#777">20%</text><line x1="50" y1="202" x2="940" y2="202" stroke="#e6e6e6"/><text x="42" y="206" text-anchor="end" font-size="11" fill="#777">40%</text><line x1="50" y1="148" x2="940" y2="148" stroke="#e6e6e6"/><text x="42" y="152" text-anchor="end" font-size="11" fill="#777">60%</text><line x1="50" y1="94" x2="940" y2="94" stroke="#e6e6e6"/><text x="42" y="98" text-anchor="end" font-size="11" fill="#777">80%</text><line x1="50" y1="40" x2="940" y2="40" stroke="#e6e6e6"/><text x="42" y="44" text-anchor="end" font-size="11" fill="#777">100%</text><rect x="70.025" y="116.84242061114438" width="48.95" height="193.15757938885562" fill="#2f9e6f" rx="2"/><text x="94.5" y="110.84242061114438" text-anchor="middle" font-size="11" fill="#2b2b2b">72%</text><text x="94.5" y="328" text-anchor="middle" font-size="11" fill="#2b2b2b">Q1</text><rect x="159.025" y="141.25" width="48.95" height="168.75" fill="#2f9e6f" rx="2"/><text x="183.5" y="135.25" text-anchor="middle" font-size="11" fill="#2b2b2b">63%</text><text x="183.5" y="328" text-anchor="middle" font-size="11" fill="#2b2b2b">Q2</text><rect x="248.025" y="118.70281605751947" width="48.95" height="191.29718394248053" fill="#2f9e6f" rx="2"/><text x="272.5" y="112.70281605751947" text-anchor="middle" font-size="11" fill="#2b2b2b">71%</text><text x="272.5" y="328" text-anchor="middle" font-size="11" fill="#2b2b2b">Q3</text><rect x="337.025" y="58.34239130434784" width="48.95" height="251.65760869565216" fill="#2f9e6f" rx="2"/><text x="361.5" y="52.34239130434784" text-anchor="middle" font-size="11" fill="#2b2b2b">93%</text><text x="361.5" y="328" text-anchor="middle" font-size="11" fill="#2b2b2b">Q4</text><rect x="426.025" y="102.84691136974035" width="48.95" height="207.15308863025965" fill="#2f9e6f" rx="2"/><text x="450.5" y="96.84691136974035" text-anchor="middle" font-size="11" fill="#2b2b2b">77%</text><text x="450.5" y="328" text-anchor="middle" font-size="11" fill="#2b2b2b">Q5</text><rect x="515.025" y="100.91316025067147" width="48.95" height="209.08683974932853" fill="#2f9e6f" rx="2"/><text x="539.5" y="94.91316025067147" text-anchor="middle" font-size="11" fill="#2b2b2b">77%</text><text x="539.5" y="328" text-anchor="middle" font-size="11" fill="#2b2b2b">Q6</text><rect x="604.025" y="57.11956521739128" width="48.95" height="252.88043478260872" fill="#2f9e6f" rx="2"/><text x="628.5" y="51.11956521739128" text-anchor="middle" font-size="11" fill="#2b2b2b">94%</text><text x="628.5" y="328" text-anchor="middle" font-size="11" fill="#2b2b2b">Q7</text><rect x="693.025" y="115.95266626722588" width="48.95" height="194.04733373277412" fill="#2f9e6f" rx="2"/><text x="717.5" y="109.95266626722588" text-anchor="middle" font-size="11" fill="#2b2b2b">72%</text><text x="717.5" y="328" text-anchor="middle" font-size="11" fill="#2b2b2b">Q8</text><rect x="782.025" y="60.94967046135412" width="48.95" height="249.05032953864588" fill="#2f9e6f" rx="2"/><text x="806.5" y="54.94967046135412" text-anchor="middle" font-size="11" fill="#2b2b2b">92%</text><text x="806.5" y="328" text-anchor="middle" font-size="11" fill="#2b2b2b">Q9</text><rect x="871.025" y="102.36347358997313" width="48.95" height="207.63652641002687" fill="#2f9e6f" rx="2"/><text x="895.5" y="96.36347358997313" text-anchor="middle" font-size="11" fill="#2b2b2b">77%</text><text x="895.5" y="328" text-anchor="middle" font-size="11" fill="#2b2b2b">Q10</text>
</svg>