<svg xmlns="http://www.w3.org/2000/svg" viewBox="0 0 960 440" font-family="-apple-system,Segoe UI,Roboto,sans-serif">
<rect width="960" height="440" fill="#ffffff"/>
<text x="480" y="24" text-anchor="middle" font-size="15" font-weight="600" fill="#2b2b2b">Agentic-coding session — Noto vs Obsidian</text>
<line x1="40" y1="384" x2="450" y2="384" stroke="#8a8a8a"/><rect x="109.69999999999999" y="106.03389830508473" width="106.60000000000001" height="277.96610169491527" fill="#e0533d" rx="2"/><text x="163" y="98.03389830508473" text-anchor="middle" font-size="12" fill="#2b2b2b">43,222</text><text x="163" y="402" text-anchor="middle" font-size="11" fill="#777">Obsidian</text><rect x="273.7" y="328.60228587293506" width="106.60000000000001" height="55.397714127064944" fill="#2f9e6f" rx="2"/><text x="327" y="320.60228587293506" text-anchor="middle" font-size="12" fill="#2b2b2b">8,614</text><text x="327" y="402" text-anchor="middle" font-size="11" fill="#777">Noto</text><text x="245" y="40" text-anchor="middle" font-size="12" fill="#2b2b2b">INPUT — context re-fed per turn</text><text x="245" y="424" text-anchor="middle" font-size="14" font-weight="700" fill="#2f9e6f">−80% tokens</text><line x1="520" y1="384" x2="930" y2="384" stroke="#8a8a8a"/><rect x="589.7" y="106.03389830508473" width="106.60000000000001" height="277.96610169491527" fill="#e0533d" rx="2"/><text x="643" y="98.03389830508473" text-anchor="middle" font-size="12" fill="#2b2b2b">1,594</text><text x="643" y="402" text-anchor="middle" font-size="11" fill="#777">Obsidian</text><rect x="753.7" y="199.67743444697274" width="106.60000000000001" height="184.32256555302726" fill="#2f9e6f" rx="2"/><text x="807" y="191.67743444697274" text-anchor="middle" font-size="12" fill="#2b2b2b">1,057</text><text x="807" y="402" text-anchor="middle" font-size="11" fill="#777">Noto</text><text x="725" y="40" text-anchor="middle" font-size="12" fill="#2b2b2b">OUTPUT — tokens emitted per edit</text><text x="725" y="424" text-anchor="middle" font-size="14" font-weight="700" fill="#2f9e6f">−34% tokens</text><line x1="480" y1="48" x2="480" y2="392" stroke="#e6e6e6"/><text x="480" y="432" text-anchor="middle" font-size="11" fill="#777">Combined session: 44,816 → 9,671 tokens (−78%). Panels use independent scales.</text>
</svg>