<svg xmlns="http://www.w3.org/2000/svg" viewBox="0 0 960 440" font-family="-apple-system,Segoe UI,Roboto,sans-serif">
<rect width="960" height="440" fill="#ffffff"/>
<text x="480" y="24" text-anchor="middle" font-size="15" font-weight="600" fill="#2b2b2b">Input tokens per query — baseline vs optimized</text>
<line x1="70" y1="370" x2="940" y2="370" stroke="#e6e6e6"/><text x="62" y="374" text-anchor="end" font-size="11" fill="#777">0</text><line x1="70" y1="304" x2="940" y2="304" stroke="#e6e6e6"/><text x="62" y="308" text-anchor="end" font-size="11" fill="#777">721</text><line x1="70" y1="238" x2="940" y2="238" stroke="#e6e6e6"/><text x="62" y="242" text-anchor="end" font-size="11" fill="#777">1,442</text><line x1="70" y1="172" x2="940" y2="172" stroke="#e6e6e6"/><text x="62" y="176" text-anchor="end" font-size="11" fill="#777">2,163</text><line x1="70" y1="106" x2="940" y2="106" stroke="#e6e6e6"/><text x="62" y="110" text-anchor="end" font-size="11" fill="#777">2,884</text><line x1="70" y1="40.00000000000006" x2="940" y2="40.00000000000006" stroke="#e6e6e6"/><text x="62" y="44.00000000000006" text-anchor="end" font-size="11" fill="#777">3,605</text><rect x="80.18" y="64.44444444444446" width="31.32" height="305.55555555555554" fill="#e0533d" rx="2"/><rect x="115.5" y="283.0384128886226" width="31.32" height="86.96158711137741" fill="#2f9e6f" rx="2"/><text x="113.5" y="388" text-anchor="middle" font-size="11" fill="#2b2b2b">Q1</text><rect x="167.18" y="268.9414819253046" width="31.32" height="101.05851807469543" fill="#e0533d" rx="2"/><rect x="202.5" y="332.1030557219892" width="31.32" height="37.89694427801078" fill="#2f9e6f" rx="2"/><text x="200.5" y="388" text-anchor="middle" font-size="11" fill="#2b2b2b">Q2</text><rect x="254.18" y="64.44444444444446" width="31.32" height="305.55555555555554" fill="#e0533d" rx="2"/><rect x="289.5" y="280.9330270953998" width="31.32" height="89.06697290460022" fill="#2f9e6f" rx="2"/><text x="287.5" y="388" text-anchor="middle" font-size="11" fill="#2b2b2b">Q3</text><rect x="341.18" y="268.9414819253046" width="31.32" height="101.05851807469543" fill="#e0533d" rx="2"/><rect x="376.5" y="363.1346115438386" width="31.32" height="6.865388456161384" fill="#2f9e6f" rx="2"/><text x="374.5" y="388" text-anchor="middle" font-size="11" fill="#2b2b2b">Q4</text><rect x="428.18" y="165.5029625191399" width="31.32" height="204.4970374808601" fill="#e0533d" rx="2"/><rect x="463.5" y="322.3999733706145" width="31.32" height="47.600026629385525" fill="#2f9e6f" rx="2"/><text x="461.5" y="388" text-anchor="middle" font-size="11" fill="#2b2b2b">Q5</text><rect x="515.18" y="165.5029625191399" width="31.32" height="204.4970374808601" fill="#e0533d" rx="2"/><rect x="550.5" y="323.8645895745956" width="31.32" height="46.135410425404416" fill="#2f9e6f" rx="2"/><text x="548.5" y="388" text-anchor="middle" font-size="11" fill="#2b2b2b">Q6</text><rect x="602.18" y="268.9414819253046" width="31.32" height="101.05851807469543" fill="#e0533d" rx="2"/><rect x="637.5" y="363.5923041075827" width="31.32" height="6.40769589241728" fill="#2f9e6f" rx="2"/><text x="635.5" y="388" text-anchor="middle" font-size="11" fill="#2b2b2b">Q7</text><rect x="689.18" y="64.44444444444446" width="31.32" height="305.55555555555554" fill="#e0533d" rx="2"/><rect x="724.5" y="284.0453365288596" width="31.32" height="85.9546634711404" fill="#2f9e6f" rx="2"/><text x="722.5" y="388" text-anchor="middle" font-size="11" fill="#2b2b2b">Q8</text><rect x="776.18" y="64.44444444444446" width="31.32" height="305.55555555555554" fill="#e0533d" rx="2"/><rect x="811.5" y="346.29152519805604" width="31.32" height="23.708474801943964" fill="#2f9e6f" rx="2"/><text x="809.5" y="388" text-anchor="middle" font-size="11" fill="#2b2b2b">Q9</text><rect x="863.18" y="165.5029625191399" width="31.32" height="204.4970374808601" fill="#e0533d" rx="2"/><rect x="898.5" y="322.7661274216098" width="31.32" height="47.23387257839022" fill="#2f9e6f" rx="2"/><text x="896.5" y="388" text-anchor="middle" font-size="11" fill="#2b2b2b">Q10</text><rect x="70" y="414" width="12" height="12" fill="#e0533d"/><text x="88" y="424" font-size="12" fill="#2b2b2b">Baseline (dump all)</text><rect x="240" y="414" width="12" height="12" fill="#2f9e6f"/><text x="258" y="424" font-size="12" fill="#2b2b2b">Optimized (top-K retrieval)</text><text x="16" y="205" font-size="12" fill="#777" transform="rotate(-90 16 205)" text-anchor="middle">input tokens</text>
</svg>