<svg xmlns="http://www.w3.org/2000/svg" viewBox="0 0 960 380" font-family="-apple-system,Segoe UI,Roboto,sans-serif">
<rect width="960" height="380" fill="#0d0d12"/>
<text x="480" y="24" text-anchor="middle" font-size="15" font-weight="600" fill="#ede6ff">Token reduction per query (%)</text>
<line x1="50" y1="310" x2="940" y2="310" stroke="#2a2635"/><text x="42" y="314" text-anchor="end" font-size="11" fill="#9a94ab">0%</text><line x1="50" y1="256" x2="940" y2="256" stroke="#2a2635"/><text x="42" y="260" text-anchor="end" font-size="11" fill="#9a94ab">20%</text><line x1="50" y1="202" x2="940" y2="202" stroke="#2a2635"/><text x="42" y="206" text-anchor="end" font-size="11" fill="#9a94ab">40%</text><line x1="50" y1="148" x2="940" y2="148" stroke="#2a2635"/><text x="42" y="152" text-anchor="end" font-size="11" fill="#9a94ab">60%</text><line x1="50" y1="94" x2="940" y2="94" stroke="#2a2635"/><text x="42" y="98" text-anchor="end" font-size="11" fill="#9a94ab">80%</text><line x1="50" y1="40" x2="940" y2="40" stroke="#2a2635"/><text x="42" y="44" text-anchor="end" font-size="11" fill="#9a94ab">100%</text><rect x="70.025" y="116.58152658152659" width="48.95" height="193.4184734184734" fill="#863bff" rx="2"/><text x="94.5" y="110.58152658152659" text-anchor="middle" font-size="11" fill="#ede6ff">72%</text><text x="94.5" y="328" text-anchor="middle" font-size="11" fill="#ede6ff">Q1</text><rect x="159.025" y="140.97560975609758" width="48.95" height="169.02439024390242" fill="#863bff" rx="2"/><text x="183.5" y="134.97560975609758" text-anchor="middle" font-size="11" fill="#ede6ff">63%</text><text x="183.5" y="328" text-anchor="middle" font-size="11" fill="#ede6ff">Q2</text><rect x="248.025" y="118.42589842589842" width="48.95" height="191.57410157410158" fill="#863bff" rx="2"/><text x="272.5" y="112.42589842589842" text-anchor="middle" font-size="11" fill="#ede6ff">71%</text><text x="272.5" y="328" text-anchor="middle" font-size="11" fill="#ede6ff">Q3</text><rect x="337.025" y="58.292682926829286" width="48.95" height="251.7073170731707" fill="#863bff" rx="2"/><text x="361.5" y="52.292682926829286" text-anchor="middle" font-size="11" fill="#ede6ff">93%</text><text x="361.5" y="328" text-anchor="middle" font-size="11" fill="#ede6ff">Q4</text><rect x="426.025" y="102.12389380530973" width="48.95" height="207.87610619469027" fill="#863bff" rx="2"/><text x="450.5" y="96.12389380530973" text-anchor="middle" font-size="11" fill="#ede6ff">77%</text><text x="450.5" y="328" text-anchor="middle" font-size="11" fill="#ede6ff">Q5</text><rect x="515.025" y="101.52654867256635" width="48.95" height="208.47345132743365" fill="#863bff" rx="2"/><text x="539.5" y="95.52654867256635" text-anchor="middle" font-size="11" fill="#ede6ff">77%</text><text x="539.5" y="328" text-anchor="middle" font-size="11" fill="#ede6ff">Q6</text><rect x="604.025" y="58.04878048780489" width="48.95" height="251.9512195121951" fill="#863bff" rx="2"/><text x="628.5" y="52.04878048780489" text-anchor="middle" font-size="11" fill="#ede6ff">93%</text><text x="628.5" y="328" text-anchor="middle" font-size="11" fill="#ede6ff">Q7</text><rect x="693.025" y="116.26076626076627" width="48.95" height="193.73923373923373" fill="#863bff" rx="2"/><text x="717.5" y="110.26076626076627" text-anchor="middle" font-size="11" fill="#ede6ff">72%</text><text x="717.5" y="328" text-anchor="middle" font-size="11" fill="#ede6ff">Q8</text><rect x="782.025" y="60.769230769230745" width="48.95" height="249.23076923076925" fill="#863bff" rx="2"/><text x="806.5" y="54.769230769230745" text-anchor="middle" font-size="11" fill="#ede6ff">92%</text><text x="806.5" y="328" text-anchor="middle" font-size="11" fill="#ede6ff">Q9</text><rect x="871.025" y="102.48230088495575" width="48.95" height="207.51769911504425" fill="#863bff" rx="2"/><text x="895.5" y="96.48230088495575" text-anchor="middle" font-size="11" fill="#ede6ff">77%</text><text x="895.5" y="328" text-anchor="middle" font-size="11" fill="#ede6ff">Q10</text>
</svg>