<svg xmlns="http://www.w3.org/2000/svg" viewBox="0 0 960 440" font-family="-apple-system,Segoe UI,Roboto,sans-serif">
<rect width="960" height="440" fill="#0d0d12"/>
<text x="480" y="24" text-anchor="middle" font-size="15" font-weight="600" fill="#ede6ff">Input tokens per query — baseline vs optimized</text>
<line x1="70" y1="370" x2="940" y2="370" stroke="#2a2635"/><text x="62" y="374" text-anchor="end" font-size="11" fill="#9a94ab">0</text><line x1="70" y1="304" x2="940" y2="304" stroke="#2a2635"/><text x="62" y="308" text-anchor="end" font-size="11" fill="#9a94ab">727</text><line x1="70" y1="238" x2="940" y2="238" stroke="#2a2635"/><text x="62" y="242" text-anchor="end" font-size="11" fill="#9a94ab">1,455</text><line x1="70" y1="171.99999999999997" x2="940" y2="171.99999999999997" stroke="#2a2635"/><text x="62" y="175.99999999999997" text-anchor="end" font-size="11" fill="#9a94ab">2,182</text><line x1="70" y1="106" x2="940" y2="106" stroke="#2a2635"/><text x="62" y="110" text-anchor="end" font-size="11" fill="#9a94ab">2,909</text><line x1="70" y1="40" x2="940" y2="40" stroke="#2a2635"/><text x="62" y="44" text-anchor="end" font-size="11" fill="#9a94ab">3,636</text><rect x="80.18" y="64.44444444444446" width="31.32" height="305.55555555555554" fill="#f5a623" rx="2"/><rect x="115.5" y="283.33366333366337" width="31.32" height="86.66633666633663" fill="#863bff" rx="2"/><text x="113.5" y="388" text-anchor="middle" font-size="11" fill="#ede6ff">Q1</text><rect x="167.18" y="269.53964953964953" width="31.32" height="100.46035046035047" fill="#f5a623" rx="2"/><rect x="202.5" y="332.42946242946243" width="31.32" height="37.57053757053757" fill="#863bff" rx="2"/><text x="200.5" y="388" text-anchor="middle" font-size="11" fill="#ede6ff">Q2</text><rect x="254.18" y="64.44444444444446" width="31.32" height="305.55555555555554" fill="#f5a623" rx="2"/><rect x="289.5" y="281.24641124641124" width="31.32" height="88.75358875358876" fill="#863bff" rx="2"/><text x="287.5" y="388" text-anchor="middle" font-size="11" fill="#ede6ff">Q3</text><rect x="341.18" y="269.53964953964953" width="31.32" height="100.46035046035047" fill="#f5a623" rx="2"/><rect x="376.5" y="363.1937431937432" width="31.32" height="6.806256806256783" fill="#863bff" rx="2"/><text x="374.5" y="388" text-anchor="middle" font-size="11" fill="#ede6ff">Q4</text><rect x="428.18" y="164.90479490479493" width="31.32" height="205.09520509520507" fill="#f5a623" rx="2"/><rect x="463.5" y="322.8099528099528" width="31.32" height="47.19004719004721" fill="#863bff" rx="2"/><text x="461.5" y="388" text-anchor="middle" font-size="11" fill="#ede6ff">Q5</text><rect x="515.18" y="164.90479490479493" width="31.32" height="205.09520509520507" fill="#f5a623" rx="2"/><rect x="550.5" y="323.2637032637033" width="31.32" height="46.73629673629671" fill="#863bff" rx="2"/><text x="548.5" y="388" text-anchor="middle" font-size="11" fill="#ede6ff">Q6</text><rect x="602.18" y="269.53964953964953" width="31.32" height="100.46035046035047" fill="#f5a623" rx="2"/><rect x="637.5" y="363.2844932844933" width="31.32" height="6.715506715506706" fill="#863bff" rx="2"/><text x="635.5" y="388" text-anchor="middle" font-size="11" fill="#ede6ff">Q7</text><rect x="689.18" y="64.44444444444446" width="31.32" height="305.55555555555554" fill="#f5a623" rx="2"/><rect x="724.5" y="283.6966636966637" width="31.32" height="86.30333630333632" fill="#863bff" rx="2"/><text x="722.5" y="388" text-anchor="middle" font-size="11" fill="#ede6ff">Q8</text><rect x="776.18" y="64.44444444444446" width="31.32" height="305.55555555555554" fill="#f5a623" rx="2"/><rect x="811.5" y="346.4957264957265" width="31.32" height="23.5042735042735" fill="#863bff" rx="2"/><text x="809.5" y="388" text-anchor="middle" font-size="11" fill="#ede6ff">Q9</text><rect x="863.18" y="164.90479490479493" width="31.32" height="205.09520509520507" fill="#f5a623" rx="2"/><rect x="898.5" y="322.53770253770256" width="31.32" height="47.46229746229744" fill="#863bff" rx="2"/><text x="896.5" y="388" text-anchor="middle" font-size="11" fill="#ede6ff">Q10</text><rect x="70" y="414" width="12" height="12" fill="#f5a623"/><text x="88" y="424" font-size="12" fill="#ede6ff">Baseline (dump all)</text><rect x="240" y="414" width="12" height="12" fill="#863bff"/><text x="258" y="424" font-size="12" fill="#ede6ff">Optimized (top-K retrieval)</text><text x="16" y="205" font-size="12" fill="#9a94ab" transform="rotate(-90 16 205)" text-anchor="middle">input tokens</text>
</svg>