<svg xmlns="http://www.w3.org/2000/svg" viewBox="0 0 960 440" font-family="-apple-system,Segoe UI,Roboto,sans-serif">
<rect width="960" height="440" fill="#ffffff"/>
<text x="480" y="24" text-anchor="middle" font-size="15" font-weight="600" fill="#2b2b2b">Savings scale with corpus size (combined-scenario mean)</text>
<line x1="70" y1="380" x2="900" y2="380" stroke="#e6e6e6"/><text x="62" y="384" text-anchor="end" font-size="11" fill="#777">0</text><text x="908" y="384" text-anchor="start" font-size="11" fill="#3b6fd4">0%</text><line x1="70" y1="316.8" x2="900" y2="316.8" stroke="#e6e6e6"/><text x="62" y="320.8" text-anchor="end" font-size="11" fill="#777">6,576</text><text x="908" y="320.8" text-anchor="start" font-size="11" fill="#3b6fd4">20%</text><line x1="70" y1="253.60000000000002" x2="900" y2="253.60000000000002" stroke="#e6e6e6"/><text x="62" y="257.6" text-anchor="end" font-size="11" fill="#777">13,151</text><text x="908" y="257.6" text-anchor="start" font-size="11" fill="#3b6fd4">40%</text><line x1="70" y1="190.40000000000003" x2="900" y2="190.40000000000003" stroke="#e6e6e6"/><text x="62" y="194.40000000000003" text-anchor="end" font-size="11" fill="#777">19,727</text><text x="908" y="194.4" text-anchor="start" font-size="11" fill="#3b6fd4">60%</text><line x1="70" y1="127.20000000000002" x2="900" y2="127.20000000000002" stroke="#e6e6e6"/><text x="62" y="131.20000000000002" text-anchor="end" font-size="11" fill="#777">26,303</text><text x="908" y="131.2" text-anchor="start" font-size="11" fill="#3b6fd4">80%</text><line x1="70" y1="64" x2="900" y2="64" stroke="#e6e6e6"/><text x="62" y="68" text-anchor="end" font-size="11" fill="#777">32,878</text><text x="908" y="68" text-anchor="start" font-size="11" fill="#3b6fd4">100%</text><path d="M130.5,350.1 L240.4,312.9 L460.3,237.5 L900.0,87.4" fill="none" stroke="#e0533d" stroke-width="2.5"/><path d="M130.5,372.5 L240.4,372.5 L460.3,372.5 L900.0,372.4" fill="none" stroke="#2f9e6f" stroke-width="2.5"/><path d="M130.5,143.0 L240.4,99.3 L460.3,80.7 L900.0,72.2" fill="none" stroke="#3b6fd4" stroke-width="2" stroke-dasharray="5 4"/><circle cx="130.46357615894038" cy="350.0612316156119" r="3.5" fill="#e0533d"/><circle cx="130.46357615894038" cy="372.51290511350294" r="3.5" fill="#2f9e6f"/><circle cx="130.46357615894038" cy="143.02536115569825" r="3.5" fill="#3b6fd4"/><text x="130.46357615894038" y="135.02536115569825" text-anchor="middle" font-size="11" fill="#3b6fd4">75.0%</text><text x="130.46357615894038" y="398" text-anchor="middle" font-size="11" fill="#2b2b2b">11</text><circle cx="240.39735099337747" cy="312.9429255159308" r="3.5" fill="#e0533d"/><circle cx="240.39735099337747" cy="372.50329395190283" r="3.5" fill="#2f9e6f"/><circle cx="240.39735099337747" cy="99.32750465816252" r="3.5" fill="#3b6fd4"/><text x="240.39735099337747" y="91.32750465816252" text-anchor="middle" font-size="11" fill="#3b6fd4">88.8%</text><text x="240.39735099337747" y="398" text-anchor="middle" font-size="11" fill="#2b2b2b">31</text><circle cx="460.26490066225165" cy="237.54336276295348" r="3.5" fill="#e0533d"/><circle cx="460.26490066225165" cy="372.4576409343022" r="3.5" fill="#2f9e6f"/><circle cx="460.26490066225165" cy="80.73060315746864" r="3.5" fill="#3b6fd4"/><text x="460.26490066225165" y="72.73060315746864" text-anchor="middle" font-size="11" fill="#3b6fd4">94.7%</text><text x="460.26490066225165" y="398" text-anchor="middle" font-size="11" fill="#2b2b2b">71</text><circle cx="900" cy="87.40740740740745" r="3.5" fill="#e0533d"/><circle cx="900" cy="372.40958512630164" r="3.5" fill="#2f9e6f"/><circle cx="900" cy="72.19764806359427" r="3.5" fill="#3b6fd4"/><text x="900" y="64.19764806359427" text-anchor="middle" font-size="11" fill="#3b6fd4">97.4%</text><text x="900" y="398" text-anchor="middle" font-size="11" fill="#2b2b2b">151</text><text x="485" y="426" text-anchor="middle" font-size="12" fill="#777">notes in corpus (11 real + synthetic)</text><rect x="70" y="34" width="12" height="12" fill="#e0533d"/><text x="88" y="44" font-size="12" fill="#2b2b2b">Baseline tokens</text><rect x="220" y="34" width="12" height="12" fill="#2f9e6f"/><text x="238" y="44" font-size="12" fill="#2b2b2b">Optimized tokens</text><line x1="390" y1="40" x2="402" y2="40" stroke="#3b6fd4" stroke-width="2" stroke-dasharray="5 4"/><text x="408" y="44" font-size="12" fill="#2b2b2b">% savings (right axis)</text>
</svg>