<svg xmlns="http://www.w3.org/2000/svg" viewBox="0 0 960 400" font-family="-apple-system,Segoe UI,Roboto,sans-serif">
<rect width="960" height="400" fill="#ffffff"/>
<text x="480" y="24" text-anchor="middle" font-size="15" font-weight="600" fill="#2b2b2b">Per-turn cost across the session (input + output combined)</text>
<line x1="70" y1="350" x2="940" y2="350" stroke="#e6e6e6"/><text x="62" y="354" text-anchor="end" font-size="11" fill="#777">0</text><line x1="70" y1="288.8" x2="940" y2="288.8" stroke="#e6e6e6"/><text x="62" y="292.8" text-anchor="end" font-size="11" fill="#777">937</text><line x1="70" y1="227.60000000000002" x2="940" y2="227.60000000000002" stroke="#e6e6e6"/><text x="62" y="231.60000000000002" text-anchor="end" font-size="11" fill="#777">1,874</text><line x1="70" y1="166.4" x2="940" y2="166.4" stroke="#e6e6e6"/><text x="62" y="170.4" text-anchor="end" font-size="11" fill="#777">2,812</text><line x1="70" y1="105.20000000000002" x2="940" y2="105.20000000000002" stroke="#e6e6e6"/><text x="62" y="109.20000000000002" text-anchor="end" font-size="11" fill="#777">3,749</text><line x1="70" y1="44" x2="940" y2="44" stroke="#e6e6e6"/><text x="62" y="48" text-anchor="end" font-size="11" fill="#777">4,686</text><rect x="78.15" y="132.42298532688025" width="26.099999999999998" height="217.57701467311975" fill="#e0533d" rx="2"/><rect x="108.25" y="280.7828224629331" width="26.099999999999998" height="69.2171775370669" fill="#2f9e6f" rx="2"/><text x="106.25" y="366" text-anchor="middle" font-size="10" fill="#2b2b2b">T1</text><rect x="150.65" y="134.25136360144424" width="26.099999999999998" height="215.74863639855576" fill="#e0533d" rx="2"/><rect x="180.75" y="280.9787201352078" width="26.099999999999998" height="69.02127986479218" fill="#2f9e6f" rx="2"/><text x="178.75" y="366" text-anchor="middle" font-size="10" fill="#2b2b2b">T2</text><rect x="223.15" y="128.70092955366061" width="26.099999999999998" height="221.29907044633939" fill="#e0533d" rx="2"/><rect x="253.25" y="279.3462395329185" width="26.099999999999998" height="70.6537604670815" fill="#2f9e6f" rx="2"/><text x="251.25" y="366" text-anchor="middle" font-size="10" fill="#2b2b2b">T3</text><rect x="295.65" y="120.99562111085504" width="26.099999999999998" height="229.00437888914496" fill="#e0533d" rx="2"/><rect x="325.75" y="286.2026580625336" width="26.099999999999998" height="63.7973419374664" fill="#2f9e6f" rx="2"/><text x="323.75" y="366" text-anchor="middle" font-size="10" fill="#2b2b2b">T4</text><rect x="368.15" y="116.29407697626178" width="26.099999999999998" height="233.70592302373822" fill="#e0533d" rx="2"/><rect x="398.25" y="282.35000384113084" width="26.099999999999998" height="67.64999615886916" fill="#2f9e6f" rx="2"/><text x="396.25" y="366" text-anchor="middle" font-size="10" fill="#2b2b2b">T5</text><rect x="440.65" y="111.07013904893603" width="26.099999999999998" height="238.92986095106397" fill="#e0533d" rx="2"/><rect x="470.75" y="286.2026580625336" width="26.099999999999998" height="63.7973419374664" fill="#2f9e6f" rx="2"/><text x="468.75" y="366" text-anchor="middle" font-size="10" fill="#2b2b2b">T6</text><rect x="513.15" y="103.2342321579473" width="26.099999999999998" height="246.7657678420527" fill="#e0533d" rx="2"/><rect x="543.25" y="327.4064684643159" width="26.099999999999998" height="22.59353153568412" fill="#2f9e6f" rx="2"/><text x="541.25" y="366" text-anchor="middle" font-size="10" fill="#2b2b2b">T7</text><rect x="585.65" y="98.98978259199507" width="26.099999999999998" height="251.01021740800493" fill="#e0533d" rx="2"/><rect x="615.75" y="326.10048398248443" width="26.099999999999998" height="23.899516017515566" fill="#2f9e6f" rx="2"/><text x="613.75" y="366" text-anchor="middle" font-size="10" fill="#2b2b2b">T8</text><rect x="658.15" y="92.91695475147884" width="26.099999999999998" height="257.08304524852116" fill="#e0533d" rx="2"/><rect x="688.25" y="325.57809018975183" width="26.099999999999998" height="24.421909810248167" fill="#2f9e6f" rx="2"/><text x="686.25" y="366" text-anchor="middle" font-size="10" fill="#2b2b2b">T9</text><rect x="730.65" y="88.34600906506876" width="26.099999999999998" height="261.65399093493124" fill="#e0533d" rx="2"/><rect x="760.75" y="329.4960436352462" width="26.099999999999998" height="20.503956364753776" fill="#2f9e6f" rx="2"/><text x="758.75" y="366" text-anchor="middle" font-size="10" fill="#2b2b2b">T10</text><rect x="803.15" y="79.66121226088961" width="26.099999999999998" height="270.3387877391104" fill="#e0533d" rx="2"/><rect x="833.25" y="280.91342091111625" width="26.099999999999998" height="69.08657908888375" fill="#2f9e6f" rx="2"/><text x="831.25" y="366" text-anchor="middle" font-size="10" fill="#2b2b2b">T11</text><rect x="875.65" y="66.66666666666669" width="26.099999999999998" height="283.3333333333333" fill="#e0533d" rx="2"/><rect x="905.75" y="283.1335945302297" width="26.099999999999998" height="66.86640546977031" fill="#2f9e6f" rx="2"/><text x="903.75" y="366" text-anchor="middle" font-size="10" fill="#2b2b2b">T12</text><rect x="70" y="26" width="12" height="12" fill="#e0533d"/><text x="88" y="36" font-size="12" fill="#2b2b2b">Obsidian (baseline)</text><rect x="250" y="26" width="12" height="12" fill="#2f9e6f"/><text x="268" y="36" font-size="12" fill="#2b2b2b">Noto (optimized)</text><text x="16" y="197" font-size="12" fill="#777" transform="rotate(-90 16 197)" text-anchor="middle">tokens / turn (in+out)</text>
</svg>