<svg xmlns="http://www.w3.org/2000/svg" viewBox="0 0 960 400" font-family="-apple-system,Segoe UI,Roboto,sans-serif"><rect width="960" height="400" fill="#fff"/><text x="480" y="26" text-anchor="middle" font-size="15" font-weight="600" fill="#2b2b2b">Output-token overhead of the retrieval path (tool calls); answer output is question-driven</text><line x1="60" y1="330" x2="940" y2="330" stroke="#e6e6e6"/><text x="52" y="334" text-anchor="end" font-size="11" fill="#777">0</text><line x1="60" y1="272.8" x2="940" y2="272.8" stroke="#e6e6e6"/><text x="52" y="276.8" text-anchor="end" font-size="11" fill="#777">17</text><line x1="60" y1="215.60000000000002" x2="940" y2="215.60000000000002" stroke="#e6e6e6"/><text x="52" y="219.60000000000002" text-anchor="end" font-size="11" fill="#777">33</text><line x1="60" y1="158.4" x2="940" y2="158.4" stroke="#e6e6e6"/><text x="52" y="162.4" text-anchor="end" font-size="11" fill="#777">50</text><line x1="60" y1="101.20000000000002" x2="940" y2="101.20000000000002" stroke="#e6e6e6"/><text x="52" y="105.20000000000002" text-anchor="end" font-size="11" fill="#777">66</text><line x1="60" y1="44" x2="940" y2="44" stroke="#e6e6e6"/><text x="52" y="48" text-anchor="end" font-size="11" fill="#777">83</text><rect x="82" y="115.84541062801932" width="44" height="214.15458937198068" fill="#3b6fd4" rx="2"/><text x="104" y="110.84541062801932" text-anchor="middle" font-size="11" fill="#2b2b2b">62</text><text x="104" y="348" text-anchor="middle" font-size="11" fill="#2b2b2b">Q1</text><rect x="170" y="212.56038647342996" width="44" height="117.43961352657004" fill="#3b6fd4" rx="2"/><text x="192" y="207.56038647342996" text-anchor="middle" font-size="11" fill="#2b2b2b">34</text><text x="192" y="348" text-anchor="middle" font-size="11" fill="#2b2b2b">Q2</text><rect x="258" y="115.84541062801932" width="44" height="214.15458937198068" fill="#3b6fd4" rx="2"/><text x="280" y="110.84541062801932" text-anchor="middle" font-size="11" fill="#2b2b2b">62</text><text x="280" y="348" text-anchor="middle" font-size="11" fill="#2b2b2b">Q3</text><rect x="346" y="216.0144927536232" width="44" height="113.98550724637681" fill="#3b6fd4" rx="2"/><text x="368" y="211.0144927536232" text-anchor="middle" font-size="11" fill="#2b2b2b">33</text><text x="368" y="348" text-anchor="middle" font-size="11" fill="#2b2b2b">Q4</text><rect x="434" y="222.92270531400965" width="44" height="107.07729468599035" fill="#3b6fd4" rx="2"/><text x="456" y="217.92270531400965" text-anchor="middle" font-size="11" fill="#2b2b2b">31</text><text x="456" y="348" text-anchor="middle" font-size="11" fill="#2b2b2b">Q5</text><rect x="522" y="219.46859903381642" width="44" height="110.53140096618358" fill="#3b6fd4" rx="2"/><text x="544" y="214.46859903381642" text-anchor="middle" font-size="11" fill="#2b2b2b">32</text><text x="544" y="348" text-anchor="middle" font-size="11" fill="#2b2b2b">Q6</text><rect x="610" y="226.3768115942029" width="44" height="103.6231884057971" fill="#3b6fd4" rx="2"/><text x="632" y="221.3768115942029" text-anchor="middle" font-size="11" fill="#2b2b2b">30</text><text x="632" y="348" text-anchor="middle" font-size="11" fill="#2b2b2b">Q7</text><rect x="698" y="115.84541062801932" width="44" height="214.15458937198068" fill="#3b6fd4" rx="2"/><text x="720" y="110.84541062801932" text-anchor="middle" font-size="11" fill="#2b2b2b">62</text><text x="720" y="348" text-anchor="middle" font-size="11" fill="#2b2b2b">Q8</text><rect x="786" y="81.30434782608697" width="44" height="248.69565217391303" fill="#3b6fd4" rx="2"/><text x="808" y="76.30434782608697" text-anchor="middle" font-size="11" fill="#2b2b2b">72</text><text x="808" y="348" text-anchor="middle" font-size="11" fill="#2b2b2b">Q9</text><rect x="874" y="216.0144927536232" width="44" height="113.98550724637681" fill="#3b6fd4" rx="2"/><text x="896" y="211.0144927536232" text-anchor="middle" font-size="11" fill="#2b2b2b">33</text><text x="896" y="348" text-anchor="middle" font-size="11" fill="#2b2b2b">Q10</text><rect x="60" y="374" width="12" height="12" fill="#3b6fd4"/><text x="78" y="384" font-size="12" fill="#2b2b2b">Tool-call output the optimized path must emit (baseline = 0)</text><text x="16" y="187" font-size="12" fill="#777" transform="rotate(-90 16 187)" text-anchor="middle">output tokens</text></svg>